<svg id="visual" viewBox="0 0 1000 250" width="1000" height="250" xmlns="http://www.w3.org/2000/svg" xmlns:xlink="http://www.w3.org/1999/xlink" version="1.1"><rect x="0" y="0" width="1000" height="250" fill="#FFFFFF"></rect><defs><linearGradient id="grad1_0" x1="75%" y1="100%" x2="100%" y2="0%"><stop offset="-30%" stop-color="#ffffff" stop-opacity="1"></stop><stop offset="130%" stop-color="#ffffff" stop-opacity="1"></stop></linearGradient></defs><defs><linearGradient id="grad2_0" x1="0%" y1="100%" x2="25%" y2="0%"><stop offset="-30%" stop-color="#ffffff" stop-opacity="1"></stop><stop offset="130%" stop-color="#ffffff" stop-opacity="1"></stop></linearGradient></defs><g transform="translate(1000, 250)"><path d="M-200 0C-201.9 -12.7 -203.7 -25.4 -197 -34.7C-190.2 -44.1 -174.8 -50.1 -172.9 -62.9C-171 -75.8 -182.8 -95.5 -170.6 -98.5C-158.5 -101.5 -122.4 -87.7 -111.8 -93.8C-101.2 -100 -116 -126 -112.5 -134.1C-108.9 -142.1 -87 -132.3 -73 -126.4C-59 -120.6 -52.9 -118.8 -48.6 -133.4C-44.3 -148.1 -41.8 -179.2 -34 -193C-26.2 -206.9 -13.1 -203.4 0 -200L0 0Z" fill="#FFA900"></path></g><g transform="translate(0, 0)"><path d="M200 0C204.1 13.3 208.2 26.6 197 34.7C185.7 42.8 159 45.8 153.2 55.7C147.3 65.7 162.3 82.7 163.7 94.5C165 106.3 152.7 112.8 144 120.8C135.3 128.9 130.3 138.4 122.1 145.5C114 152.7 102.7 157.6 89.5 155C76.3 152.4 61.1 142.3 50.6 139.1C40.1 135.8 34.2 139.4 26.6 150.7C18.9 162 9.5 181 0 200L0 0Z" fill="#FFA900"></path></g></svg>